<svg width="16" height="16" viewBox="0 0 16 16" fill="none" xmlns="http://www.w3.org/2000/svg">
<path d="M13.401 1.14C12.6 1.581 11.916 1.962 11.732 2.078C10.763 2.682 9.565 3.946 9.288 4.213C8.12 5.341 7.199 6.282 6.541 7.082C5.465 8.389 4.645 9.569 4.645 9.569L1.186 9.01C0.896 8.963 0.607 9.09 0.444 9.335L0 10L3.554 12.446L6 16L6.665 15.556C6.91 15.393 7.037 15.104 6.99 14.814L6.431 11.355L8.931 9.569L12 15L12.742 14.407C13.374 13.901 13.641 13.07 13.415 12.292L11.789 6.712C12.044 6.424 13.319 5.237 13.924 4.268C14.039 4.083 14.42 3.399 14.862 2.599C15.379 1.657 14.343 0.621001 13.401 1.14Z" fill="#0D0D0F"/>
<path d="M8.188 3.89L3.708 2.586C2.93 2.36 2.099 2.626 1.593 3.258L1 4L5.631 6.617L8.188 3.89Z" fill="#0D0D0F"/>
</svg>
