<svg width="14" height="14" viewBox="0 0 14 14" fill="none" xmlns="http://www.w3.org/2000/svg">
<path fill-rule="evenodd" clip-rule="evenodd" d="M12.0402 6.99995C12.0402 9.78347 9.78371 12.04 7.0002 12.04C4.21668 12.04 1.9602 9.78347 1.9602 6.99995C1.9602 4.21644 4.21668 1.95995 7.0002 1.95995C9.78371 1.95995 12.0402 4.21644 12.0402 6.99995ZM13.3002 6.99995C13.3002 10.4793 10.4796 13.3 7.0002 13.3C3.5208 13.3 0.700195 10.4793 0.700195 6.99995C0.700195 3.52056 3.5208 0.699951 7.0002 0.699951C10.4796 0.699951 13.3002 3.52056 13.3002 6.99995ZM7.5332 4.9052C7.08905 4.9052 6.83784 4.63509 6.83784 4.31615C6.83829 4.23788 6.84781 4.15992 6.86619 4.08384C6.96305 3.69796 7.29144 3.4562 7.71669 3.4562C8.16084 3.4562 8.41284 3.7271 8.41284 4.04525C8.41284 4.11298 8.4026 4.20039 8.3837 4.27756C8.28684 4.66423 7.9679 4.9052 7.5332 4.9052ZM6.62364 10.5429C5.97632 10.5429 5.76369 10.1468 5.76369 9.77983C5.76369 9.62469 5.81252 9.39316 5.85032 9.25771L6.52756 6.34554H5.78495C5.75524 6.34561 5.7259 6.33895 5.69913 6.32607C5.67236 6.31319 5.64885 6.29442 5.63037 6.27116C5.61188 6.2479 5.5989 6.22076 5.5924 6.19177C5.58589 6.16279 5.58603 6.1327 5.5928 6.10378L5.62194 5.98171C5.63423 5.92916 5.66167 5.88137 5.70087 5.84427C5.74007 5.80718 5.78929 5.7824 5.84244 5.77303L7.48202 5.48323C7.54643 5.47184 7.61266 5.47668 7.67473 5.49731C7.73681 5.51794 7.79276 5.55371 7.83755 5.60138C7.88233 5.64906 7.91453 5.70714 7.93124 5.77038C7.94795 5.83362 7.94864 5.90003 7.93325 5.9636L7.05283 9.62548C7.04599 9.65192 7.04846 9.67991 7.05983 9.70474C7.0712 9.72958 7.09077 9.74974 7.11526 9.76185C7.13974 9.77395 7.16765 9.77726 7.19428 9.77121C7.22092 9.76516 7.24466 9.75013 7.26152 9.72864L7.99704 8.82853C8.03077 8.78963 8.07802 8.76498 8.12922 8.75958C8.18043 8.75418 8.23178 8.76842 8.27289 8.79943C8.31399 8.83043 8.3418 8.87589 8.35067 8.92661C8.35955 8.97733 8.34884 9.02953 8.3207 9.07265L7.8797 9.7121C7.41587 10.3886 6.9914 10.5429 6.62364 10.5429Z" fill="#0D0D0F"/>
</svg>
