<svg width="20" height="20" viewBox="0 0 20 20" fill="none" xmlns="http://www.w3.org/2000/svg">
<path d="M9.66667 15.8788H2.83333C2.375 15.8788 2 15.497 2 15.0303C2 14.5636 2.375 14.1818 2.83333 14.1818H9.66667C10.125 14.1818 10.5 14.5636 10.5 15.0303C10.5 15.497 10.125 15.8788 9.66667 15.8788Z" fill="#9C9BA2"/>
<path d="M17.1667 10.7879H2.83333C2.375 10.7879 2 10.4061 2 9.93939C2 9.47273 2.375 9.09091 2.83333 9.09091H17.1667C17.625 9.09091 18 9.47273 18 9.93939C18 10.4061 17.625 10.7879 17.1667 10.7879Z" fill="#9C9BA2"/>
<path d="M17.1667 5.69697H10H2.83333C2.375 5.69697 2 5.31515 2 4.84848C2 4.38182 2.375 4 2.83333 4H17.1667C17.625 4 18 4.38182 18 4.84848C18 5.31515 17.625 5.69697 17.1667 5.69697Z" fill="#9C9BA2"/>
<path d="M17.1667 15.8788H13C12.5417 15.8788 12.1667 15.497 12.1667 15.0303C12.1667 14.5636 12.5417 14.1818 13 14.1818H17.1667C17.625 14.1818 18 14.5636 18 15.0303C18 15.497 17.625 15.8788 17.1667 15.8788Z" fill="#9C9BA2"/>
<path d="M14.25 17.1515V12.9091C14.25 12.4424 14.625 12.0606 15.0833 12.0606C15.5417 12.0606 15.9167 12.4424 15.9167 12.9091V17.1515C15.9167 17.6182 15.5417 18 15.0833 18C14.625 18 14.25 17.6182 14.25 17.1515Z" fill="#9C9BA2"/>
</svg>
