<svg width="20" height="20" viewBox="0 0 20 20" fill="none" xmlns="http://www.w3.org/2000/svg">
<path fill-rule="evenodd" clip-rule="evenodd" d="M6.66699 16.6666H8.33366C9.13303 16.6666 9.64909 16.6657 10.0441 16.6388C10.4241 16.6128 10.5688 16.5685 10.6381 16.5398C11.0465 16.3706 11.371 16.0461 11.5401 15.6378C11.5689 15.5684 11.6132 15.4237 11.6391 15.0437C11.6504 14.878 11.6586 13.9042 11.6625 13.3333C10.1111 13.3333 9.335 13.3332 8.72276 13.0796C7.906 12.7412 7.25709 12.0923 6.91878 11.2756C6.6653 10.6636 6.66504 9.88802 6.66504 8.33807C6.07358 8.3419 5.13778 8.34878 4.95659 8.36114C4.5766 8.38707 4.43188 8.43143 4.36252 8.46016C3.95414 8.62932 3.62968 8.95377 3.46053 9.36215C3.4318 9.43151 3.38744 9.57623 3.36151 9.95623C3.33456 10.3512 3.33366 10.8673 3.33366 11.6666V13.3333C3.33366 14.1327 3.33456 14.6487 3.36151 15.0437C3.38744 15.4237 3.4318 15.5684 3.46053 15.6378C3.62968 16.0461 3.95414 16.3706 4.36252 16.5398C4.43188 16.5685 4.5766 16.6128 4.95659 16.6388C5.35156 16.6657 5.86762 16.6666 6.66699 16.6666ZM6.66504 6.67331C5.62185 6.6891 4.15499 6.74213 3.72471 6.92036C2.90795 7.25867 2.25904 7.90759 1.92073 8.72435C1.66699 9.33692 1.66699 10.1135 1.66699 11.6666V13.3333C1.66699 14.8864 1.66699 15.663 1.92073 16.2756C2.25904 17.0923 2.90795 17.7412 3.72471 18.0796C4.33728 18.3333 5.11385 18.3333 6.66699 18.3333H8.33366C9.8868 18.3333 10.6634 18.3333 11.2759 18.0796C12.0927 17.7412 12.7416 17.0923 13.0799 16.2756C13.2836 15.7839 13.3238 15.1865 13.3317 14.1666L13.3317 13.3333C14.8848 13.3333 15.6614 13.3333 16.274 13.0796C17.0907 12.7412 17.7397 12.0923 18.078 11.2756C18.3317 10.663 18.3317 9.88643 18.3317 8.33329V6.66663C18.3317 5.11349 18.3317 4.33692 18.078 3.72435C17.7397 2.90759 17.0907 2.25867 16.274 1.92036C15.6614 1.66663 14.8848 1.66663 13.3317 1.66663H11.665C10.1119 1.66663 9.33534 1.66663 8.72276 1.92036C7.906 2.25867 7.25709 2.90759 6.91878 3.72435C6.66504 4.33692 6.66504 5.11349 6.66504 6.66663V6.67331ZM13.3317 11.6666H11.665C10.8657 11.6666 10.3496 11.6657 9.95464 11.6388C9.57465 11.6128 9.42993 11.5685 9.36057 11.5398C8.95219 11.3706 8.62773 11.0461 8.45858 10.6378C8.42985 10.5684 8.38549 10.4237 8.35956 10.0437C8.33261 9.64873 8.33171 9.13267 8.33171 8.33329V6.66663C8.33171 5.86725 8.33261 5.35119 8.35956 4.95623C8.38549 4.57623 8.42985 4.43151 8.45858 4.36215C8.62773 3.95377 8.95219 3.62932 9.36057 3.46016C9.42993 3.43143 9.57465 3.38707 9.95464 3.36114C10.3496 3.3342 10.8657 3.33329 11.665 3.33329H13.3317C14.1311 3.33329 14.6471 3.3342 15.0421 3.36114C15.4221 3.38707 15.5668 3.43143 15.6362 3.46016C16.0446 3.62932 16.369 3.95377 16.5382 4.36215C16.5669 4.43151 16.6113 4.57623 16.6372 4.95623C16.6641 5.35119 16.665 5.86725 16.665 6.66663V8.33329C16.665 9.13267 16.6641 9.64873 16.6372 10.0437C16.6113 10.4237 16.5669 10.5684 16.5382 10.6378C16.369 11.0461 16.0446 11.3706 15.6362 11.5398C15.5668 11.5685 15.4221 11.6128 15.0421 11.6388C14.6471 11.6657 14.1311 11.6666 13.3317 11.6666Z" fill="#9C9BA2"/>
</svg>
