<svg preserveAspectRatio="none" width="100%" height="100%" overflow="visible" style="display: block;" viewBox="0 0 106 17" fill="none" xmlns="http://www.w3.org/2000/svg">
<g id="Stars">
<path id="star 1" d="M9 0L11.1246 6.49342H18L12.4377 10.5066L14.5623 17L9 12.9868L3.43769 17L5.56231 10.5066L0 6.49342H6.87539L9 0Z" fill="var(--fill-0, #0D0D0F)"/>
<path id="star 2" d="M31 0L33.1246 6.49342H40L34.4377 10.5066L36.5623 17L31 12.9868L25.4377 17L27.5623 10.5066L22 6.49342H28.8754L31 0Z" fill="var(--fill-0, #0D0D0F)"/>
<path id="star 3" d="M53 0L55.1246 6.49342H62L56.4377 10.5066L58.5623 17L53 12.9868L47.4377 17L49.5623 10.5066L44 6.49342H50.8754L53 0Z" fill="var(--fill-0, #0D0D0F)"/>
<path id="star 4" d="M75 0L77.1246 6.49342H84L78.4377 10.5066L80.5623 17L75 12.9868L69.4377 17L71.5623 10.5066L66 6.49342H72.8754L75 0Z" fill="var(--fill-0, #0D0D0F)"/>
<path id="star 3_2" d="M97 0L99.1246 6.49342H106L100.438 10.5066L102.562 17L97 12.9868L91.4377 17L93.5623 10.5066L88 6.49342H94.8754L97 0Z" fill="var(--fill-0, #0D0D0F)"/>
</g>
</svg>
