<svg preserveAspectRatio="none" width="100%" height="100%" overflow="visible" style="display: block;" viewBox="0 0 18 18" fill="none" xmlns="http://www.w3.org/2000/svg">
<g id="Ic">
<path id="Icon (Stroke)" d="M14.6291 8.08596C14.6291 4.47251 11.6994 1.54298 8.08596 1.54286C4.47243 1.54286 1.54286 4.47243 1.54286 8.08596C1.54298 11.6994 4.47251 14.6291 8.08596 14.6291C9.8584 14.629 11.465 13.9225 12.6432 12.7778C12.6626 12.753 12.6827 12.7283 12.7055 12.7055C12.7283 12.6827 12.753 12.6626 12.7778 12.6432C13.9225 11.465 14.629 9.8584 14.6291 8.08596ZM16.1719 8.08596C16.1719 10.0406 15.4773 11.8329 14.3227 13.2308L17.7741 16.6832C18.0753 16.9845 18.0753 17.4728 17.7741 17.7741C17.4728 18.0753 16.9845 18.0753 16.6832 17.7741L13.2308 14.3227C11.8329 15.4773 10.0406 16.1719 8.08596 16.1719C3.62041 16.1719 0.000120603 12.5515 0 8.08596C0 3.62033 3.62033 0 8.08596 0C12.5515 0.000120606 16.1719 3.62041 16.1719 8.08596Z" fill="var(--fill-0, #0D0D0F)"/>
<path id="Vector (Stroke)" d="M10.0704 5.59749C10.3717 5.29631 10.86 5.29625 11.1612 5.59749C11.4624 5.89873 11.4624 6.3871 11.1612 6.68834L7.20018 10.6494L5.29626 8.74549C4.995 8.44423 4.995 7.9559 5.29626 7.65464C5.59752 7.35338 6.08585 7.35338 6.38711 7.65464L7.20018 8.4677L10.0704 5.59749Z" fill="var(--fill-0, #0D0D0F)"/>
</g>
</svg>
