<svg width="12" height="12" viewBox="0 0 12 12" fill="none" xmlns="http://www.w3.org/2000/svg">
<path d="M10.5 0.810225C10.87 0.695225 11.155 0.680068 11.25 0.775068C11.3449 0.870136 11.3298 1.15516 11.2148 1.52507C10.9683 2.27592 10.5528 2.96029 10 3.52507L9 4.52507L9.5 11.0251L9 11.5251L6.80957 6.70671C6.40116 7.09896 5.96512 7.46136 5.5 7.78483C5.22076 8.00058 4.9258 8.1936 4.61914 8.36491L5 11.0251L4.5 11.5251L3 9.02507L0.5 7.52507L1 7.02507L3.66113 7.40495C3.83192 7.09855 4.02609 6.80484 4.24023 6.52507C4.61521 5.98896 5.03666 5.48695 5.5 5.02507L8.5 2.02507C9.0648 1.47227 9.74912 1.05672 10.5 0.810225ZM6.59473 2.95476C5.90915 3.56071 5.27428 4.22183 4.69531 4.93034L0.5 3.02507L1 2.52507L6.59473 2.95476Z" fill="#9C9BA2"/>
</svg>
