<svg width="12" height="12" viewBox="0 0 12 12" fill="none" xmlns="http://www.w3.org/2000/svg">
<path d="M5.5 10L5 12H3.5L4.34473 10.3096C4.39109 10.2168 4.46262 10.1387 4.55078 10.084C4.639 10.0293 4.74093 10.0003 4.84473 10H5.5ZM7.15527 10C7.25907 10.0003 7.361 10.0293 7.44922 10.084C7.53738 10.1387 7.60891 10.2168 7.65527 10.3096L8.5 12H7L6.5 10H7.15527ZM6.78027 0.5C6.99044 0.499867 7.19574 0.565557 7.36621 0.688477C7.53664 0.811395 7.66423 0.985159 7.73047 1.18457L7.88867 1.66406C8.29008 1.73403 8.68797 1.82607 9.08008 1.94043C9.49088 2.06496 9.85076 2.31827 10.1064 2.66309C10.3621 3.00792 10.5002 3.4262 10.5 3.85547V8.64453C10.5002 9.0738 10.3621 9.49208 10.1064 9.83691C9.85076 10.1817 9.49088 10.435 9.08008 10.5596C9.02501 10.5771 8.96976 10.5934 8.91406 10.6084L8.74512 10.6504L8.24512 9.90039C8.16543 9.77795 8.05605 9.67725 7.92773 9.60742C7.79945 9.53763 7.65581 9.50043 7.50977 9.5H4.4502C4.30717 9.49999 4.16638 9.5355 4.04004 9.60254C3.95412 9.64817 3.87676 9.70783 3.81055 9.77832L3.22461 10.6445L2.91992 10.5596C2.50912 10.435 2.14924 10.1817 1.89355 9.83691C1.6379 9.49208 1.4998 9.0738 1.5 8.64453V3.85547C1.4998 3.4262 1.6379 3.00792 1.89355 2.66309C2.14924 2.31827 2.50912 2.06496 2.91992 1.94043C3.31172 1.82616 3.70926 1.73401 4.11035 1.66406L4.26953 1.18457C4.33577 0.985159 4.46336 0.811395 4.63379 0.688477C4.80426 0.565557 5.00956 0.499867 5.21973 0.5H6.78027ZM2.5 8H4.5C4.5 7.73478 4.39457 7.48051 4.20703 7.29297C4.0195 7.10543 3.76522 7 3.5 7H2.5V8ZM8.5 7C8.23478 7 7.98051 7.10543 7.79297 7.29297C7.60543 7.48051 7.5 7.73478 7.5 8H9.5V7H8.5ZM6 2.5C5.05246 2.5 4.10984 2.63509 3.2002 2.90039C2.99703 2.96428 2.81927 3.09092 2.69336 3.2627C2.56745 3.43447 2.49977 3.64249 2.5 3.85547V5.27441C2.72114 5.40496 3.03969 5.5 3.5 5.5H8.5C8.96031 5.5 9.27886 5.40496 9.5 5.27441V3.85547C9.50023 3.64249 9.43255 3.43447 9.30664 3.2627C9.18073 3.09092 9.00297 2.96428 8.7998 2.90039C7.89016 2.63509 6.94754 2.5 6 2.5Z" fill="#9C9BA2"/>
</svg>
