<svg width="20" height="20" viewBox="0 0 20 20" fill="none" xmlns="http://www.w3.org/2000/svg">
<path d="M13.0001 1.66663C12.7239 1.66663 12.5001 1.89048 12.5001 2.16663V2.83493C12.5001 3.11043 12.7229 3.33402 12.9984 3.33492L15.5392 3.34324L12.0203 6.86201C11.825 7.05726 11.825 7.37383 12.0203 7.5691L12.4308 7.9797C12.6261 8.17498 12.9427 8.17499 13.1379 7.97973L16.6592 4.45869L16.6655 7.00121C16.6662 7.27686 16.8898 7.49996 17.1655 7.49996H17.8334C18.1096 7.49996 18.3334 7.2761 18.3334 6.99996V2.16663C18.3334 1.89048 18.1096 1.66663 17.8334 1.66663H13.0001Z" fill="#9C9BA2"/>
<path d="M7.00008 18.3333C7.27622 18.3333 7.50008 18.1094 7.50008 17.8333V17.1567C7.50008 16.8805 7.27622 16.6567 7.00008 16.6567H4.46093L7.97986 13.1379C8.17513 12.9427 8.17514 12.6261 7.97989 12.4308L7.56933 12.0202C7.37408 11.8249 7.05749 11.8249 6.86222 12.0202L3.341 15.5412V13C3.341 12.7238 3.11715 12.5 2.841 12.5H2.16675C1.89061 12.5 1.66675 12.7238 1.66675 13V17.8333C1.66675 18.1094 1.89061 18.3333 2.16675 18.3333H7.00008Z" fill="#9C9BA2"/>
</svg>
