<svg width="20" height="20" viewBox="0 0 20 20" fill="none" xmlns="http://www.w3.org/2000/svg">
<path d="M15.8335 7.49996V6.66663H9.16683V7.49996H4.5835V4.16663C4.5835 3.47746 5.14433 2.91663 5.8335 2.91663C6.52266 2.91663 7.0835 3.47746 7.0835 4.16663H5.8335V5.41663H9.16683V4.16663H8.3335C8.3335 2.78829 7.21183 1.66663 5.8335 1.66663C4.45516 1.66663 3.3335 2.78829 3.3335 4.16663V7.49996H0.833496L1.29183 12.0808C1.4285 13.4491 2.22016 14.6 3.3335 15.2541V17.5H4.5835L5.2085 15.8333H14.7918L15.4168 17.5H16.6668V15.2541C17.7802 14.6 18.5718 13.4491 18.7085 12.0816L19.1668 7.49996H15.8335ZM10.4168 7.91663H14.5835V10.8333C14.5835 11.0633 14.3968 11.25 14.1668 11.25H10.8335C10.6035 11.25 10.4168 11.0633 10.4168 10.8333V7.91663ZM17.4652 11.9566C17.3152 13.4541 16.0677 14.5833 14.5627 14.5833H5.43766C3.93266 14.5833 2.68516 13.4541 2.53516 11.9566L2.21433 8.74996H9.16683V10.8333C9.16683 11.7541 9.91266 12.5 10.8335 12.5H14.1668C15.0877 12.5 15.8335 11.7541 15.8335 10.8333V8.74996H17.786L17.4652 11.9566Z" fill="#9C9BA2"/>
</svg>
