<svg width="20" height="20" viewBox="0 0 20 20" fill="none" xmlns="http://www.w3.org/2000/svg">
<path d="M18.6449 9.62246C18.5508 9.55829 18.4458 9.49079 18.3333 9.42163V5.26579C18.3333 4.23413 17.6908 3.29746 16.7358 2.93413C15.4941 2.46079 12.9674 1.66663 9.99992 1.66663C7.03242 1.66663 4.50575 2.46079 3.26492 2.93413C2.30909 3.29746 1.66659 4.23413 1.66659 5.26579V9.41746C1.55659 9.48496 1.45409 9.55163 1.36242 9.61413C1.02492 9.84579 0.833252 10.23 0.833252 10.6383V18.3333H2.49992L3.12492 16.6666H16.8749L17.4999 18.3333H19.1666V10.6383C19.1666 10.2358 18.9783 9.84996 18.6449 9.62246ZM2.91659 5.26579C2.91659 4.74996 3.23492 4.28246 3.71075 4.10246C4.87075 3.65913 7.23075 2.91663 9.99992 2.91663C12.7674 2.91663 15.1291 3.65996 16.2916 4.10329C16.7649 4.28246 17.0833 4.74996 17.0833 5.26579V8.75246C16.5908 8.51913 16.0308 8.28496 15.4166 8.06746V7.18246C15.4166 6.59079 15.0058 6.06663 14.4241 5.95829C14.0808 5.89413 13.6483 5.84329 13.1249 5.83329C12.3949 5.81996 11.8399 5.91413 11.4591 6.01663C11.0908 6.11663 10.8333 6.44413 10.8333 6.82579V7.11079C10.5574 7.09413 10.2799 7.08329 9.99992 7.08329C9.71992 7.08329 9.44242 7.09413 9.16659 7.11079V6.82579C9.16659 6.44413 8.90909 6.11663 8.54075 6.01746C8.15992 5.91496 7.60492 5.82079 6.87492 5.83413C6.35242 5.84329 5.91992 5.89496 5.57575 5.95913C4.99409 6.06663 4.58325 6.59079 4.58325 7.18246V8.06413C3.96992 8.28079 3.40909 8.51413 2.91659 8.74746V5.26579ZM2.07409 15.4166V10.6466C3.43242 9.71663 6.65992 8.33329 9.99992 8.33329C13.3299 8.33329 16.5733 9.72163 17.9166 10.6383V15.4166H2.07409Z" fill="#9C9BA2"/>
</svg>
