<svg width="14" height="14" viewBox="0 0 14 14" fill="none" xmlns="http://www.w3.org/2000/svg">
<g clip-path="url(#clip0_726_81474)">
<path fill-rule="evenodd" clip-rule="evenodd" d="M7.06333 3.72398H5.4101V6.55327H4.66907V7.42033H5.4101V7.9152H4.66907V8.78226H5.4101V10.276H6.51156V8.78226H8.40027V7.9152H6.51156V7.42033H6.99104C7.33079 7.42033 7.64242 7.38581 7.92511 7.31557C8.20883 7.24507 8.45709 7.13679 8.66755 6.98883C8.88093 6.83881 9.04554 6.64507 9.16023 6.40928C9.27577 6.17176 9.33107 5.89432 9.33107 5.58094C9.33107 4.97155 9.13153 4.49658 8.71665 4.18032C8.31056 3.87076 7.75429 3.72398 7.06333 3.72398ZM6.51156 6.55327V4.6877H7.06333C7.50514 4.6877 7.79567 4.77036 7.96352 4.9092C8.12779 5.04509 8.22057 5.26005 8.22057 5.58094C8.22057 5.92875 8.11433 6.16313 7.92176 6.31146C7.72047 6.4665 7.41633 6.55327 6.99104 6.55327H6.51156Z" fill="#7F5FFF"/>
<path fill-rule="evenodd" clip-rule="evenodd" d="M7.0002 0.699951C3.5208 0.699951 0.700195 3.52056 0.700195 6.99995C0.700195 10.4793 3.5208 13.3 7.0002 13.3C10.4796 13.3 13.3002 10.4793 13.3002 6.99995C13.3002 3.52056 10.4796 0.699951 7.0002 0.699951ZM1.8342 6.99995C1.8342 9.85305 4.14709 12.166 7.0002 12.166C9.8533 12.166 12.1662 9.85305 12.1662 6.99995C12.1662 4.14685 9.8533 1.83395 7.0002 1.83395C4.14709 1.83395 1.8342 4.14685 1.8342 6.99995Z" fill="#7F5FFF"/>
</g>
<defs>
<clipPath id="clip0_726_81474">
<rect width="14" height="14" fill="white"/>
</clipPath>
</defs>
</svg>
